<svg width="24" height="24" viewBox="0 0 24 24" fill="none" xmlns="http://www.w3.org/2000/svg">
<path d="M3.75 22.5C3.3375 22.5 3 22.1625 3 21.75V3.19219C3 2.79375 3.21563 2.41875 3.55781 2.22188C4.125 1.89375 5.26406 1.5 7.5 1.5C9.24375 1.5 11.1938 2.18906 12.9188 2.79844C14.3016 3.28594 15.6141 3.75 16.5 3.75C17.6484 3.74531 18.7687 3.52031 19.8281 3.07031C20.0391 2.98125 20.2687 2.98125 20.4797 3.06563C20.6859 3.15 20.85 3.31406 20.9391 3.52031C20.9813 3.62344 21.0047 3.73594 21.0047 3.84844V14.1281C21.0047 14.5031 20.7844 14.8359 20.4422 14.9859C20.0344 15.1641 18.5438 15.75 16.5047 15.75C15.375 15.75 13.9547 15.4172 12.4547 15.0609C10.7672 14.6625 9.02344 14.25 7.50469 14.25C5.775 14.25 4.89375 14.5125 4.50469 14.6766V21.75C4.5 22.1625 4.1625 22.5 3.75 22.5ZM7.5 12.75C9.19688 12.75 11.1094 13.2 12.7969 13.5984C12.8189 13.6036 12.8409 13.6088 12.8628 13.614C14.2494 13.9411 15.5587 14.25 16.5 14.25C17.8781 14.25 18.9422 13.95 19.5 13.7484V4.78594C18.5344 5.09062 17.5266 5.24531 16.5 5.25C15.3516 5.25 13.9266 4.74375 12.4125 4.21406C10.7297 3.61406 8.98594 3 7.5 3C5.76094 3 4.87969 3.2625 4.5 3.42656V13.0922C5.15625 12.9047 6.11719 12.75 7.5 12.75Z" fill="#0F172A"/>
</svg>
